<svg width="20" height="22" viewBox="0 0 20 22" fill="none" xmlns="http://www.w3.org/2000/svg">
<path d="M19.9252 11.2857C19.9252 10.8304 19.7511 10.3884 19.4297 10.0804L10.7109 1.36161C10.3895 1.04018 9.94755 0.852677 9.49219 0.852677C9.03683 0.852677 8.60826 1.04018 8.28683 1.36161L7.28237 2.36607C6.96094 2.67411 6.77344 3.11607 6.77344 3.57143C6.77344 4.02678 6.96094 4.46875 7.28237 4.77678L11.2065 8.71428H1.7779C0.813616 8.71428 0.210938 9.51786 0.210938 10.4286V12.1429C0.210938 13.0536 0.813616 13.8571 1.7779 13.8571H11.2065L7.28237 17.7812C6.96094 18.1027 6.77344 18.5446 6.77344 19C6.77344 19.4554 6.96094 19.8973 7.28237 20.2188L8.28683 21.2232C8.60826 21.5313 9.03683 21.7188 9.49219 21.7188C9.94755 21.7188 10.3895 21.5313 10.7109 21.2232L19.4297 12.5045C19.7511 12.183 19.9252 11.7411 19.9252 11.2857Z" fill="#3AB54A"/>
</svg>
